HIERARCHY
ROOT Hips
{
	OFFSET 0.000000 71.427986 0.000000
	CHANNELS 6 Xposition Yposition Zposition Xrotation Yrotation Zrotation
	JOINT Pelvis
	{
		OFFSET 0.000000 0.000000 0.000000
		CHANNELS 3 Xrotation Yrotation Zrotation
		JOINT LeftUpLeg
		{
			OFFSET 6.797100 -2.508499 -1.318700
			CHANNELS 3 Xrotation Yrotation Zrotation
			JOINT LeftLeg
			{
				OFFSET 0.069008 -29.241863 0.690200
				CHANNELS 3 Xrotation Yrotation Zrotation
				JOINT LeftFoot
				{
					OFFSET -0.069008 -29.568123 -0.266800
					CHANNELS 3 Xrotation Yrotation Zrotation
					JOINT LeftToeBase
					{
						OFFSET 3.145500 -8.631000 16.059900
						CHANNELS 3 Xrotation Yrotation Zrotation
						End Site
						{
							OFFSET 0.000000 18.501587 0.000000
						}
					}
				}
			}
			JOINT Left_ShortSleeve
			{
				OFFSET 0.265923 -10.480953 1.153800
				CHANNELS 3 Xrotation Yrotation Zrotation
				End Site
				{
					OFFSET 1.725763 19.823879 0.000000
				}
			}
		}
		JOINT RightUpLeg
		{
			OFFSET -6.797100 -2.508499 -1.318700
			CHANNELS 3 Xrotation Yrotation Zrotation
			JOINT RightLeg
			{
				OFFSET -0.082453 -29.241932 0.688000
				CHANNELS 3 Xrotation Yrotation Zrotation
				JOINT RightFoot
				{
					OFFSET 0.082453 -29.568058 -0.264600
					CHANNELS 3 Xrotation Yrotation Zrotation
					JOINT RightToeBase
					{
						OFFSET -3.115300 -8.682800 16.113400
						CHANNELS 3 Xrotation Yrotation Zrotation
						End Site
						{
							OFFSET 0.000000 18.567114 0.000000
						}
					}
				}
			}
			JOINT Right_ShortSleeve
			{
				OFFSET -0.265923 -10.480953 1.153800
				CHANNELS 3 Xrotation Yrotation Zrotation
				End Site
				{
					OFFSET -1.725766 19.823910 0.000000
				}
			}
		}
	}
	JOINT Spine
	{
		OFFSET 0.000000 13.368103 0.470500
		CHANNELS 3 Xrotation Yrotation Zrotation
		JOINT Spine1
		{
			OFFSET 0.147000 13.837402 0.538800
			CHANNELS 3 Xrotation Yrotation Zrotation
			JOINT Spine2
			{
				OFFSET 0.168000 16.242897 -1.435500
				CHANNELS 3 Xrotation Yrotation Zrotation
				JOINT Neck
				{
					OFFSET 0.217200 18.631500 -1.679100
					CHANNELS 3 Xrotation Yrotation Zrotation
					JOINT Head
					{
						OFFSET 0.000000 6.599396 1.385900
						CHANNELS 3 Xrotation Yrotation Zrotation
						JOINT Hat
						{
							OFFSET -0.532200 27.220596 -10.096100
							CHANNELS 3 Xrotation Yrotation Zrotation
							End Site
							{
								OFFSET 0.000000 22.029861 0.000000
							}
						}
						JOINT HairD
						{
							OFFSET -10.777400 17.437393 -1.325900
							CHANNELS 3 Xrotation Yrotation Zrotation
							JOINT HairD1
							{
								OFFSET -3.290299 -11.051193 1.062200
								CHANNELS 3 Xrotation Yrotation Zrotation
								End Site
								{
									OFFSET 0.000000 11.579437 0.000000
								}
							}
						}
						JOINT HairB
						{
							OFFSET -10.777400 17.437393 1.467900
							CHANNELS 3 Xrotation Yrotation Zrotation
							JOINT HairB1
							{
								OFFSET -1.561200 -12.956299 3.590200
								CHANNELS 3 Xrotation Yrotation Zrotation
								End Site
								{
									OFFSET 0.000000 13.534866 0.000000
								}
							}
						}
						JOINT HairA
						{
							OFFSET 9.713100 17.437393 1.467900
							CHANNELS 3 Xrotation Yrotation Zrotation
							JOINT HairA1
							{
								OFFSET 1.561200 -12.956299 3.590200
								CHANNELS 3 Xrotation Yrotation Zrotation
								End Site
								{
									OFFSET 0.000000 13.534866 0.000000
								}
							}
						}
						JOINT HairC
						{
							OFFSET 9.713100 17.437393 -1.325900
							CHANNELS 3 Xrotation Yrotation Zrotation
							JOINT HairC1
							{
								OFFSET 3.290300 -11.051193 1.062200
								CHANNELS 3 Xrotation Yrotation Zrotation
								End Site
								{
									OFFSET 0.000000 11.579437 0.000000
								}
							}
						}
					}
				}
				JOINT LeftShoulder
				{
					OFFSET 5.101800 15.108002 -2.763700
					CHANNELS 3 Xrotation Yrotation Zrotation
					JOINT LeftArm
					{
						OFFSET 9.825497 2.506317 -1.597400
						CHANNELS 3 Xrotation Yrotation Zrotation
						JOINT LeftForeArm
						{
							OFFSET 21.966244 0.000000 0.000000
							CHANNELS 3 Xrotation Yrotation Zrotation
							JOINT LeftHand
							{
								OFFSET 33.879036 0.000000 0.000000
								CHANNELS 3 Xrotation Yrotation Zrotation
								JOINT LeftHandThumb1
								{
									OFFSET 6.715286 -2.359680 3.363841
									CHANNELS 3 Xrotation Yrotation Zrotation
									JOINT LeftHandThumb2
									{
										OFFSET 2.507072 -1.447464 1.447461
										CHANNELS 3 Xrotation Yrotation Zrotation
										JOINT LeftHandThumb3
										{
											OFFSET 2.898338 -1.673355 1.673357
											CHANNELS 3 Xrotation Yrotation Zrotation
											End Site
											{
												OFFSET -0.295959 3.727692 -0.131651
											}
										}
									}
								}
								JOINT LeftHandIndex1
								{
									OFFSET 14.190811 -0.254547 3.840278
									CHANNELS 3 Xrotation Yrotation Zrotation
									JOINT LeftHandIndex2
									{
										OFFSET 3.551727 0.000000 -0.000000
										CHANNELS 3 Xrotation Yrotation Zrotation
										JOINT LeftHandIndex3
										{
											OFFSET 2.894196 0.000000 0.000000
											CHANNELS 3 Xrotation Yrotation Zrotation
											End Site
											{
												OFFSET -1.000603 2.690872 0.366626
											}
										}
									}
								}
								JOINT LeftHandMiddle1
								{
									OFFSET 13.776489 0.000000 0.000000
									CHANNELS 3 Xrotation Yrotation Zrotation
									JOINT LeftHandMiddle2
									{
										OFFSET 3.438232 0.000000 0.000000
										CHANNELS 3 Xrotation Yrotation Zrotation
										JOINT LeftHandMiddle3
										{
											OFFSET 3.691551 0.000000 0.000000
											CHANNELS 3 Xrotation Yrotation Zrotation
											End Site
											{
												OFFSET -1.082298 3.499527 0.457670
											}
										}
									}
								}
								JOINT LeftHandRing1
								{
									OFFSET 13.966164 -0.268127 -3.067488
									CHANNELS 3 Xrotation Yrotation Zrotation
									JOINT LeftHandRing2
									{
										OFFSET 3.162567 0.000000 0.000000
										CHANNELS 3 Xrotation Yrotation Zrotation
										JOINT LeftHandRing3
										{
											OFFSET 3.324348 0.000000 0.000000
											CHANNELS 3 Xrotation Yrotation Zrotation
											End Site
											{
												OFFSET -0.861900 3.184998 0.405154
											}
										}
									}
								}
								JOINT LeftHandPinky1
								{
									OFFSET 13.131393 -0.168503 -5.746925
									CHANNELS 3 Xrotation Yrotation Zrotation
									JOINT LeftHandPinky2
									{
										OFFSET 2.849182 0.000000 0.000000
										CHANNELS 3 Xrotation Yrotation Zrotation
										JOINT LeftHandPinky3
										{
											OFFSET 2.805038 0.000000 0.000000
											CHANNELS 3 Xrotation Yrotation Zrotation
											End Site
											{
												OFFSET -0.882500 2.642609 0.325652
											}
										}
									}
								}
							}
							JOINT Left_Sleeve
							{
								OFFSET 6.592125 -0.646545 0.805568
								CHANNELS 3 Xrotation Yrotation Zrotation
								End Site
								{
									OFFSET -0.000179 20.275787 -0.000000
								}
							}
						}
					}
				}
				JOINT RightShoulder
				{
					OFFSET -5.731700 15.108002 -2.763700
					CHANNELS 3 Xrotation Yrotation Zrotation
					JOINT RightArm
					{
						OFFSET -9.825497 2.506317 -1.597400
						CHANNELS 3 Xrotation Yrotation Zrotation
						JOINT RightForeArm
						{
							OFFSET -21.966242 0.000000 0.000000
							CHANNELS 3 Xrotation Yrotation Zrotation
							JOINT RightHand
							{
								OFFSET -33.879032 0.000000 0.000000
								CHANNELS 3 Xrotation Yrotation Zrotation
								JOINT RightHandThumb1
								{
									OFFSET -6.715286 -2.359680 3.363841
									CHANNELS 3 Xrotation Yrotation Zrotation
									JOINT RightHandThumb2
									{
										OFFSET -2.507072 -1.447464 1.447461
										CHANNELS 3 Xrotation Yrotation Zrotation
										JOINT RightHandThumb3
										{
											OFFSET -2.898338 -1.673355 1.673357
											CHANNELS 3 Xrotation Yrotation Zrotation
											End Site
											{
												OFFSET 0.295959 3.727692 -0.131651
											}
										}
									}
								}
								JOINT RightHandIndex1
								{
									OFFSET -14.190811 -0.254547 3.840278
									CHANNELS 3 Xrotation Yrotation Zrotation
									JOINT RightHandIndex2
									{
										OFFSET -3.551727 0.000000 -0.000000
										CHANNELS 3 Xrotation Yrotation Zrotation
										JOINT RightHandIndex3
										{
											OFFSET -2.894196 0.000000 0.000000
											CHANNELS 3 Xrotation Yrotation Zrotation
											End Site
											{
												OFFSET 1.000603 2.690872 0.366626
											}
										}
									}
								}
								JOINT RightHandMiddle1
								{
									OFFSET -13.776489 0.000000 0.000000
									CHANNELS 3 Xrotation Yrotation Zrotation
									JOINT RightHandMiddle2
									{
										OFFSET -3.438232 0.000000 0.000000
										CHANNELS 3 Xrotation Yrotation Zrotation
										JOINT RightHandMiddle3
										{
											OFFSET -3.691551 0.000000 0.000000
											CHANNELS 3 Xrotation Yrotation Zrotation
											End Site
											{
												OFFSET 1.082298 3.499527 0.457670
											}
										}
									}
								}
								JOINT RightHandRing1
								{
									OFFSET -13.966164 -0.268127 -3.067488
									CHANNELS 3 Xrotation Yrotation Zrotation
									JOINT RightHandRing2
									{
										OFFSET -3.162567 0.000000 0.000000
										CHANNELS 3 Xrotation Yrotation Zrotation
										JOINT RightHandRing3
										{
											OFFSET -3.324348 0.000000 0.000000
											CHANNELS 3 Xrotation Yrotation Zrotation
											End Site
											{
												OFFSET 0.861900 3.184998 0.405154
											}
										}
									}
								}
								JOINT RightHandPinky1
								{
									OFFSET -13.131393 -0.168503 -5.746925
									CHANNELS 3 Xrotation Yrotation Zrotation
									JOINT RightHandPinky2
									{
										OFFSET -2.849182 0.000000 0.000000
										CHANNELS 3 Xrotation Yrotation Zrotation
										JOINT RightHandPinky3
										{
											OFFSET -2.805038 0.000000 0.000000
											CHANNELS 3 Xrotation Yrotation Zrotation
											End Site
											{
												OFFSET 0.882500 2.642609 0.325652
											}
										}
									}
								}
							}
							JOINT Right_Sleeve
							{
								OFFSET -6.592125 -0.646545 0.805568
								CHANNELS 3 Xrotation Yrotation Zrotation
								End Site
								{
									OFFSET 0.000179 20.275787 -0.000000
								}
							}
						}
					}
				}
				JOINT Bind_Right_JacketString
				{
					OFFSET -3.534800 11.969597 7.200700
					CHANNELS 3 Xrotation Yrotation Zrotation
					JOINT Bind_Right_JacketString1
					{
						OFFSET -0.319900 -6.102600 2.794100
						CHANNELS 3 Xrotation Yrotation Zrotation
						End Site
						{
							OFFSET 0.000000 6.719452 0.000000
						}
					}
				}
				JOINT Bind_Left_JacketString
				{
					OFFSET 2.904800 11.969597 7.200700
					CHANNELS 3 Xrotation Yrotation Zrotation
					JOINT Bind_Left_JacketString1
					{
						OFFSET 0.364800 -5.904503 3.186800
						CHANNELS 3 Xrotation Yrotation Zrotation
						End Site
						{
							OFFSET 0.000000 6.719513 0.000000
						}
					}
				}
				JOINT HairE
				{
					OFFSET 5.915200 17.612701 -11.592200
					CHANNELS 3 Xrotation Yrotation Zrotation
					JOINT HairE1
					{
						OFFSET 0.289200 -7.171898 -1.284500
						CHANNELS 3 Xrotation Yrotation Zrotation
						End Site
						{
							OFFSET 0.000000 7.291756 0.000000
						}
					}
				}
				JOINT HairF
				{
					OFFSET -0.864800 17.612701 -11.592200
					CHANNELS 3 Xrotation Yrotation Zrotation
					JOINT HairF1
					{
						OFFSET 0.000000 -14.087097 -2.127501
						CHANNELS 3 Xrotation Yrotation Zrotation
						End Site
						{
							OFFSET 0.000000 14.246841 0.000000
						}
					}
				}
				JOINT HairG
				{
					OFFSET -8.087700 17.612701 -11.592200
					CHANNELS 3 Xrotation Yrotation Zrotation
					JOINT HairG1
					{
						OFFSET -0.293600 -6.081398 -0.910100
						CHANNELS 3 Xrotation Yrotation Zrotation
						End Site
						{
							OFFSET 0.000000 6.156120 0.000000
						}
					}
				}
			}
		}
	}
	JOINT Pouch
	{
		OFFSET 0.000000 4.394501 10.847300
		CHANNELS 3 Xrotation Yrotation Zrotation
		End Site
		{
			OFFSET 0.000000 21.880577 0.000000
		}
	}
	JOINT Bag
	{
		OFFSET -13.229000 4.813004 -0.593300
		CHANNELS 3 Xrotation Yrotation Zrotation
		End Site
		{
			OFFSET 0.000000 21.880577 0.000000
		}
	}
	JOINT OccupyGuyFacialAnim_Joint
	{
		OFFSET 1.000000 -70.206398 -1.655000
		CHANNELS 3 Xrotation Yrotation Zrotation
		End Site
		{
			OFFSET 0.000000 21.880577 0.000000
		}
	}
}
MOTION
Frames: 4
Frame Time: 0.033333
-0.394843 27.069344 0.919410 5.025400 -10.727421 4.836778 0.000000 0.000000 -0.000000 -120.921655 -8.230521 11.130089 119.725949 8.131366 1.543326 -0.044525 5.827641 -7.910739 0.000000 0.000002 -0.000000 -0.000001 0.000000 -0.000000 -56.831040 -3.997187 -21.754750 154.265765 -14.826816 -1.834171 -6.331427 -20.051924 -15.721608 -0.000002 0.000001 0.000001 -0.000001 0.000001 -0.000001 20.997943 -11.216789 -4.828960 5.108444 -2.360277 -1.725029 5.521685 -4.525794 0.332769 5.125299 7.782616 -1.381775 -21.472207 15.546448 1.599098 -0.000003 0.000000 -0.000000 -0.000003 0.000000 -0.000000 -0.000003 0.000000 -0.000000 -0.000003 0.000000 -0.000000 -0.000001 0.000000 -0.000000 -0.000003 0.000000 -0.000000 -0.000001 0.000000 -0.000000 -0.000003 0.000000 -0.000000 -0.000003 0.000000 -0.000000 3.272868 -13.932892 -1.988055 -36.655747 -9.121380 -32.747018 -0.000341 -96.162561 -0.000325 -147.965229 -26.158279 11.978311 9.873049 -5.863804 -9.427550 0.997804 0.731241 -1.434372 -0.000001 -0.000000 -0.000000 -3.156944 0.551121 -39.712837 4.788060 5.754013 -79.514863 0.000000 0.000002 0.000000 1.015389 5.899913 -50.379120 5.070878 5.798995 -82.324168 0.000000 -0.000001 0.000001 2.566140 7.151492 -54.470960 5.460174 5.838067 -86.162775 -0.000001 0.000002 -0.000002 4.135197 8.114467 -58.588680 4.970050 5.784586 -81.325007 -0.000001 0.000001 0.000003 0.000002 0.000002 0.000000 -0.089820 26.091044 0.809873 -24.640742 20.221050 46.963547 0.000017 110.073389 -0.000035 -38.641420 -20.708625 7.071720 20.470555 7.475552 18.843594 4.151722 -12.160911 -33.847983 -0.000001 0.000000 0.000003 -0.887084 1.427989 12.684542 1.917394 -3.767449 53.934322 -0.000000 0.000000 -0.000003 0.770921 -5.199581 54.618823 5.563838 -4.568262 101.238573 0.000001 0.000000 -0.000001 6.934455 -8.544257 63.908769 2.909312 -4.317397 67.934714 0.000002 -0.000002 0.000001 8.373389 -8.171788 73.989930 2.173695 -3.940976 57.745390 -0.000001 0.000000 -0.000003 0.000004 0.000001 -0.000002 0.000001 -0.000001 -0.000000 0.000001 0.000000 -0.000001 0.000001 -0.000001 -0.000001 0.000001 -0.000001 -0.000001 0.000001 -0.000001 -0.000000 0.000001 0.000000 -0.000001 0.000001 -0.000001 -0.000001 0.000001 -0.000001 -0.000001 0.000001 -0.000001 -0.000000 0.000001 0.000000 -0.000001 0.000000 0.000000 -0.000000 0.000000 0.000000 -0.000000 0.000000 0.000000 -0.000000 
-0.384653 27.069366 0.929175 5.053362 -10.713853 4.840368 -0.000000 0.000000 -0.000000 -120.961093 -8.189029 11.137211 119.740579 8.135883 1.546420 -0.066822 5.826975 -7.871729 0.000000 0.000000 -0.000000 0.000001 -0.000001 0.000000 -56.834441 -3.976695 -21.774657 154.249140 -14.837281 -1.832914 -6.321203 -20.059636 -15.696352 -0.000002 0.000001 0.000000 0.000001 0.000000 -0.000001 20.985275 -11.224805 -4.824721 5.106339 -2.363262 -1.724174 5.519713 -4.528762 0.333698 5.123295 7.781991 -1.382694 -21.448455 15.542080 1.583523 0.000000 0.000000 -0.000000 0.000000 0.000000 -0.000000 0.000000 0.000000 -0.000000 0.000000 0.000000 -0.000000 -0.000001 0.000000 -0.000000 0.000000 0.000000 -0.000000 -0.000001 0.000000 -0.000000 0.000000 0.000000 -0.000000 0.000000 0.000000 -0.000000 3.273341 -13.924048 -1.983478 -36.658530 -9.132165 -32.759571 0.000633 -96.154768 0.000646 -147.986157 -26.140812 11.913010 9.873049 -5.863804 -9.427550 0.997805 0.731239 -1.434374 0.000000 -0.000000 0.000000 -3.156942 0.551118 -39.712841 4.788061 5.754017 -79.514856 -0.000000 0.000000 -0.000002 1.015388 5.899914 -50.379124 5.070878 5.798994 -82.324161 -0.000002 -0.000001 -0.000001 2.566140 7.151490 -54.470964 5.460174 5.838068 -86.162775 0.000001 -0.000001 0.000002 4.135196 8.114459 -58.588680 4.970051 5.784586 -81.325007 -0.000002 -0.000002 0.000003 0.000002 -0.000002 -0.000004 -0.097621 26.099476 0.834342 -24.644709 20.207086 46.958018 0.000079 110.086564 -0.000065 -38.574730 -20.720513 7.096957 20.470558 7.475555 18.843592 4.151719 -12.160910 -33.847986 -0.000000 0.000000 -0.000000 -0.887083 1.427990 12.684535 1.917394 -3.767448 53.934319 0.000001 0.000001 -0.000001 0.770920 -5.199580 54.618820 5.563836 -4.568262 101.238573 0.000001 0.000001 0.000001 6.934455 -8.544257 63.908762 2.909314 -4.317395 67.934714 -0.000000 -0.000001 -0.000001 8.373390 -8.171790 73.989916 2.173693 -3.940976 57.745390 0.000001 0.000001 -0.000003 0.000004 -0.000001 -0.000002 -0.000000 -0.000001 0.000000 0.000003 0.000000 -0.000001 -0.000000 -0.000001 0.000001 -0.000000 -0.000001 0.000001 -0.000000 -0.000001 0.000000 0.000003 0.000000 -0.000001 -0.000000 -0.000001 0.000001 -0.000000 -0.000001 0.000001 -0.000000 -0.000001 0.000000 0.000003 0.000000 -0.000001 -0.000000 0.000000 -0.000000 -0.000000 0.000000 -0.000000 -0.000000 0.000000 -0.000000 
-0.374718 27.069054 0.937813 5.079460 -10.699520 4.843270 -0.000000 -0.000001 0.000000 -120.999711 -8.148055 11.143887 119.753515 8.139877 1.549182 -0.086529 5.826268 -7.832392 0.000000 0.000000 0.000000 -0.000001 0.000000 0.000000 -56.836378 -3.958924 -21.793399 154.233827 -14.851936 -1.831702 -6.312926 -20.066592 -15.668377 0.000001 0.000000 -0.000000 -0.000004 0.000001 -0.000000 20.970178 -11.233705 -4.821483 5.103845 -2.366512 -1.723634 5.517382 -4.532020 0.334316 5.121916 7.781507 -1.383798 -21.425429 15.537934 1.569166 0.000002 0.000000 -0.000000 0.000002 0.000000 -0.000000 0.000002 0.000000 -0.000000 0.000002 0.000000 -0.000000 0.000001 0.000000 -0.000000 0.000002 0.000000 -0.000000 0.000001 0.000000 -0.000000 0.000002 0.000000 -0.000000 0.000002 0.000000 -0.000000 3.273770 -13.916146 -1.978342 -36.656170 -9.136870 -32.769960 0.001360 -96.153054 0.001427 -148.008847 -26.129826 11.849504 9.873050 -5.863803 -9.427548 0.997803 0.731241 -1.434373 0.000000 -0.000002 -0.000001 -3.156942 0.551121 -39.712834 4.788060 5.754016 -79.514856 0.000002 -0.000001 -0.000000 1.015388 5.899913 -50.379120 5.070878 5.798992 -82.324161 -0.000002 -0.000002 -0.000003 2.566136 7.151491 -54.470970 5.460174 5.838069 -86.162775 -0.000003 -0.000000 -0.000003 4.135198 8.114461 -58.588680 4.970051 5.784587 -81.325013 -0.000000 0.000001 0.000003 0.000001 -0.000001 -0.000001 -0.104239 26.106161 0.855247 -24.648464 20.197351 46.951854 0.000108 110.097896 -0.000117 -38.515194 -20.732028 7.121996 20.470558 7.475551 18.843595 4.151722 -12.160905 -33.847986 0.000002 0.000000 0.000001 -0.887083 1.427990 12.684540 1.917395 -3.767447 53.934329 -0.000001 -0.000000 0.000000 0.770919 -5.199582 54.618817 5.563838 -4.568262 101.238573 -0.000001 -0.000003 0.000000 6.934455 -8.544258 63.908762 2.909312 -4.317396 67.934714 -0.000000 -0.000001 -0.000000 8.373387 -8.171790 73.989916 2.173695 -3.940978 57.745390 0.000001 0.000003 -0.000001 0.000001 -0.000002 0.000000 0.000002 -0.000001 -0.000001 -0.000000 0.000003 0.000001 0.000002 -0.000001 -0.000001 0.000002 -0.000001 -0.000001 0.000002 -0.000001 -0.000001 -0.000000 0.000003 0.000000 0.000002 -0.000001 -0.000001 0.000002 -0.000001 -0.000001 0.000002 -0.000001 -0.000001 -0.000000 0.000003 0.000000 -0.000000 -0.000001 0.000000 -0.000000 -0.000001 0.000000 -0.000000 -0.000001 0.000000 
-0.365141 27.068405 0.945132 5.103327 -10.684460 4.845435 -0.000000 -0.000000 0.000000 -121.036990 -8.108007 11.149994 119.764457 8.143201 1.551561 -0.103292 5.825553 -7.793135 0.000000 0.000000 0.000000 0.000001 0.000000 -0.000000 -56.836415 -3.944163 -21.810792 154.219907 -14.870287 -1.830515 -6.306582 -20.072732 -15.637704 -0.000000 -0.000001 -0.000001 -0.000000 -0.000001 -0.000003 20.952614 -11.243603 -4.819351 5.100992 -2.370032 -1.723445 5.514667 -4.535529 0.334582 5.121234 7.781190 -1.385063 -21.403419 15.534160 1.556240 0.000002 0.000000 -0.000000 0.000002 0.000000 -0.000000 0.000002 0.000000 -0.000000 0.000002 0.000000 -0.000000 -0.000001 -0.000000 0.000000 0.000002 0.000000 -0.000000 -0.000001 -0.000000 0.000000 0.000002 0.000000 -0.000000 0.000002 0.000000 -0.000000 3.274099 -13.909288 -1.972615 -36.648408 -9.135012 -32.778033 0.000210 -96.157869 0.000256 -148.032889 -26.125762 11.788866 9.873047 -5.863805 -9.427550 0.997804 0.731238 -1.434373 -0.000001 0.000001 -0.000000 -3.156944 0.551118 -39.712830 4.788057 5.754015 -79.514863 0.000004 -0.000001 -0.000002 1.015386 5.899913 -50.379124 5.070878 5.798995 -82.324168 -0.000000 0.000000 -0.000001 2.566140 7.151492 -54.470970 5.460174 5.838067 -86.162775 -0.000002 0.000003 -0.000002 4.135195 8.114460 -58.588680 4.970048 5.784585 -81.325007 -0.000000 0.000001 -0.000000 -0.000001 0.000001 0.000002 -0.109566 26.110915 0.872103 -24.651964 20.192230 46.945096 0.000103 110.107089 -0.000104 -38.464050 -20.742960 7.146421 20.470558 7.475553 18.843592 4.151720 -12.160908 -33.847993 -0.000001 0.000000 0.000002 -0.887084 1.427989 12.684543 1.917397 -3.767447 53.934319 0.000000 -0.000000 0.000000 0.770919 -5.199581 54.618823 5.563836 -4.568262 101.238580 0.000001 0.000000 -0.000001 6.934455 -8.544257 63.908762 2.909314 -4.317394 67.934714 -0.000001 -0.000000 -0.000003 8.373388 -8.171787 73.989916 2.173698 -3.940976 57.745390 0.000000 0.000002 -0.000001 0.000001 -0.000001 0.000001 -0.000000 0.000002 -0.000000 -0.000000 0.000001 0.000000 -0.000000 0.000002 -0.000000 -0.000000 0.000002 -0.000000 -0.000000 0.000002 -0.000000 -0.000000 0.000001 -0.000000 -0.000000 0.000002 -0.000000 -0.000000 0.000002 -0.000000 -0.000000 0.000002 -0.000000 -0.000000 0.000001 -0.000000 -0.000000 -0.000000 0.000000 -0.000000 -0.000000 0.000000 -0.000000 -0.000000 0.000000 
